<?xml version="1.0" encoding="utf-8"?>
<!-- Generator: Adobe Illustrator 18.0.0, SVG Export Plug-In . SVG Version: 6.00 Build 0)  -->
<!DOCTYPE svg PUBLIC "-//W3C//DTD SVG 1.1//EN" "http://www.w3.org/Graphics/SVG/1.1/DTD/svg11.dtd">
<svg version="1.1" id="Layer_1" xmlns="http://www.w3.org/2000/svg" xmlns:xlink="http://www.w3.org/1999/xlink" x="0px" y="0px"
	 viewBox="0 0 78.4 80" enable-background="new 0 0 78.4 80" xml:space="preserve">
<g>
	<rect x="6.3" y="0.4" fill="#A61E22" width="55" height="79.5"/>
	<rect x="28.4" y="33.6" fill="#88171A" stroke="#88181A" stroke-miterlimit="10" width="49.3" height="31.9"/>
	<rect x="1.2" y="34.2" fill="#FFFFFF" stroke="#E5E5E5" stroke-miterlimit="10" width="22.5" height="13.4"/>
	<rect x="1.2" y="52.2" fill="#88171A" stroke="#88181A" stroke-miterlimit="10" width="22.5" height="13.4"/>
	<g>
		<path fill="#A61E22" d="M12.1,38.9L12.1,38.9v-1.7c-0.2,0-0.3,0-0.5,0.1v1.3l-1.1,0.6c0,0.2,0.1,0.3,0.2,0.4L12.1,38.9L12.1,38.9z
			"/>
		<path fill="#A61E22" d="M12.8,38.6v-1.3c-0.1-0.1-0.3-0.1-0.5-0.1v1.7v0h0l1.4,0.8c0.1-0.1,0.1-0.3,0.2-0.4L12.8,38.6z"/>
		<path fill="#A61E22" d="M12.2,39.1L12.2,39.1l-1.4,0.8c0.1,0.1,0.2,0.2,0.3,0.3l1-0.6l1,0.6c0.1-0.1,0.2-0.2,0.3-0.3L12.2,39.1
			L12.2,39.1z"/>
		<path fill="#A61E22" d="M13.6,38.8l0.3-0.2c0-0.2-0.1-0.3-0.1-0.5l-0.6,0.4L13.6,38.8z"/>
		<path fill="#A61E22" d="M12.3,39.9v0.7c0.2,0,0.3,0,0.5-0.1v-0.3L12.3,39.9z"/>
		<path fill="#A61E22" d="M13,38.3l0.6-0.4c-0.1-0.1-0.2-0.2-0.3-0.4L13,37.8L13,38.3L13,38.3z"/>
		<path fill="#A61E22" d="M11.4,37.8l-0.3-0.2c-0.1,0.1-0.2,0.2-0.3,0.4l0.6,0.4V37.8z"/>
		<path fill="#A61E22" d="M11.3,38.6l-0.6-0.4c-0.1,0.1-0.1,0.3-0.1,0.5l0.3,0.2L11.3,38.6z"/>
		<path fill="#A61E22" d="M11.6,40.2v0.2c0.1,0.1,0.3,0.1,0.5,0.1V40L11.6,40.2z"/>
	</g>
	<rect x="7.1" y="42.2" fill="#4C4C4D" width="10.3" height="0.5"/>
	<rect x="7.1" y="43.3" fill="#4C4C4D" width="10.2" height="0.3"/>
	<g>
		<path fill="#FFFFFF" d="M12.3,57.9L12.3,57.9v-1.7c-0.2,0-0.3,0-0.5,0.1v1.3l-1.1,0.6c0,0.2,0.1,0.3,0.2,0.4L12.3,57.9L12.3,57.9z
			"/>
		<path fill="#FFFFFF" d="M13.1,57.6v-1.3c-0.1-0.1-0.3-0.1-0.5-0.1v1.7v0h0l1.4,0.8c0.1-0.1,0.1-0.3,0.2-0.4L13.1,57.6z"/>
		<path fill="#FFFFFF" d="M12.5,58.2L12.5,58.2L11.1,59c0.1,0.1,0.2,0.2,0.3,0.3l1-0.6l1,0.6c0.1-0.1,0.2-0.2,0.3-0.3L12.5,58.2
			L12.5,58.2z"/>
		<path fill="#FFFFFF" d="M13.9,57.8l0.3-0.2c0-0.2-0.1-0.3-0.1-0.5l-0.6,0.4L13.9,57.8z"/>
		<path fill="#FFFFFF" d="M12.6,59v0.7c0.2,0,0.3,0,0.5-0.1v-0.3L12.6,59z"/>
		<path fill="#FFFFFF" d="M13.3,57.3l0.6-0.4c-0.1-0.1-0.2-0.2-0.3-0.4l-0.3,0.2L13.3,57.3L13.3,57.3z"/>
		<path fill="#FFFFFF" d="M11.7,56.8l-0.3-0.2c-0.1,0.1-0.2,0.2-0.3,0.4l0.6,0.4V56.8z"/>
		<path fill="#FFFFFF" d="M11.5,57.6l-0.6-0.4c-0.1,0.1-0.1,0.3-0.1,0.5l0.3,0.2L11.5,57.6z"/>
		<path fill="#FFFFFF" d="M11.9,59.3v0.2c0.1,0.1,0.3,0.1,0.5,0.1V59L11.9,59.3z"/>
	</g>
	<rect x="7.4" y="62.3" fill="#FFFFFF" width="10.2" height="0.3"/>
	<g>
		<path fill="#FFFFFF" d="M33.6,7.1L33.6,7.1V5.2c-0.2,0-0.3,0.1-0.5,0.1v1.4L32,7.5c0,0.2,0.1,0.3,0.2,0.5L33.6,7.1L33.6,7.1z"/>
		<path fill="#FFFFFF" d="M34.5,6.8V5.3c-0.2-0.1-0.3-0.1-0.5-0.1v1.8v0h0L35.5,8c0.1-0.1,0.1-0.3,0.2-0.5L34.5,6.8z"/>
		<path fill="#FFFFFF" d="M33.8,7.4L33.8,7.4l-1.5,0.9c0.1,0.1,0.2,0.3,0.4,0.4l1.1-0.7l1.1,0.6c0.1-0.1,0.3-0.2,0.4-0.4L33.8,7.4
			L33.8,7.4z"/>
		<path fill="#FFFFFF" d="M35.4,7l0.3-0.2c0-0.2-0.1-0.3-0.1-0.5l-0.7,0.4L35.4,7z"/>
		<path fill="#FFFFFF" d="M34,8.3V9c0.2,0,0.3-0.1,0.5-0.1V8.6L34,8.3z"/>
		<path fill="#FFFFFF" d="M34.7,6.5l0.7-0.4c-0.1-0.1-0.2-0.3-0.3-0.4l-0.3,0.2L34.7,6.5L34.7,6.5z"/>
		<path fill="#FFFFFF" d="M32.9,5.9l-0.3-0.2c-0.1,0.1-0.2,0.2-0.3,0.4l0.7,0.4V5.9z"/>
		<path fill="#FFFFFF" d="M32.8,6.7l-0.7-0.4C32,6.5,32,6.7,31.9,6.8L32.3,7L32.8,6.7z"/>
		<path fill="#FFFFFF" d="M33.1,8.6v0.3C33.3,8.9,33.5,9,33.6,9V8.3L33.1,8.6z"/>
	</g>
	<rect x="28.2" y="10.8" fill="#FFFFFF" width="11.2" height="0.6"/>
	<rect x="28.2" y="11.9" fill="#FFFFFF" width="11.2" height="0.3"/>
	<g>
		<path fill="#FFFFFF" d="M52.9,48.8L52.9,48.8v-2.5c-0.2,0-0.5,0.1-0.7,0.2v1.9l-1.6,0.9c0,0.2,0.1,0.4,0.2,0.6L52.9,48.8
			L52.9,48.8z"/>
		<path fill="#FFFFFF" d="M54,48.4v-1.9c-0.2-0.1-0.4-0.1-0.7-0.2v2.5v0h0l2,1.2c0.1-0.2,0.2-0.4,0.2-0.6L54,48.4z"/>
		<path fill="#FFFFFF" d="M53.1,49.2L53.1,49.2l-2,1.2c0.1,0.2,0.3,0.4,0.5,0.5l1.5-0.9l1.5,0.9c0.2-0.1,0.3-0.3,0.5-0.5L53.1,49.2
			L53.1,49.2z"/>
		<path fill="#FFFFFF" d="M55.2,48.7l0.4-0.2c0-0.2-0.1-0.5-0.2-0.7l-0.9,0.5L55.2,48.7z"/>
		<path fill="#FFFFFF" d="M53.3,50.4v1c0.2,0,0.5-0.1,0.7-0.2v-0.4L53.3,50.4z"/>
		<path fill="#FFFFFF" d="M54.3,47.9l0.9-0.5c-0.1-0.2-0.3-0.4-0.5-0.5l-0.5,0.3L54.3,47.9L54.3,47.9z"/>
		<path fill="#FFFFFF" d="M51.9,47.2l-0.5-0.3c-0.2,0.2-0.3,0.3-0.5,0.5l0.9,0.5V47.2z"/>
		<path fill="#FFFFFF" d="M51.7,48.3l-0.9-0.5c-0.1,0.2-0.2,0.4-0.2,0.7l0.5,0.3L51.7,48.3z"/>
		<path fill="#FFFFFF" d="M52.2,50.8v0.4c0.2,0.1,0.4,0.1,0.7,0.2v-0.9L52.2,50.8z"/>
	</g>
	<rect x="45.5" y="62.3" fill="#FFFFFF" width="15.1" height="0.4"/>
</g>
</svg>
