<?xml version="1.0" encoding="UTF-8" standalone="no"?>
<!-- Created with Inkscape (http://www.inkscape.org/) -->

<svg
   xmlns:dc="http://purl.org/dc/elements/1.1/"
   xmlns:cc="http://creativecommons.org/ns#"
   xmlns:rdf="http://www.w3.org/1999/02/22-rdf-syntax-ns#"
   xmlns:svg="http://www.w3.org/2000/svg"
   xmlns="http://www.w3.org/2000/svg"
   xmlns:sodipodi="http://sodipodi.sourceforge.net/DTD/sodipodi-0.dtd"
   xmlns:inkscape="http://www.inkscape.org/namespaces/inkscape"
   width="1202.0065"
   height="567.82605"
   id="svg2"
   version="1.1"
   inkscape:version="0.48.4 r9939"
   sodipodi:docname="home-hero-background.svg">
  <defs
     id="defs4" />
  <sodipodi:namedview
     id="base"
     pagecolor="#ffffff"
     bordercolor="#666666"
     borderopacity="1.0"
     inkscape:pageopacity="0.0"
     inkscape:pageshadow="2"
     inkscape:zoom="0.98994949"
     inkscape:cx="481.14041"
     inkscape:cy="286.394"
     inkscape:document-units="px"
     inkscape:current-layer="layer1"
     showgrid="false"
     inkscape:window-width="1869"
     inkscape:window-height="1056"
     inkscape:window-x="51"
     inkscape:window-y="24"
     inkscape:window-maximized="1"
     fit-margin-top="0"
     fit-margin-left="0"
     fit-margin-right="0"
     fit-margin-bottom="0" />
  <metadata
     id="metadata7">
    <rdf:RDF>
      <cc:Work
         rdf:about="">
        <dc:format>image/svg+xml</dc:format>
        <dc:type
           rdf:resource="http://purl.org/dc/dcmitype/StillImage" />
        <dc:title></dc:title>
      </cc:Work>
    </rdf:RDF>
  </metadata>
  <g
     inkscape:label="Layer 1"
     inkscape:groupmode="layer"
     id="layer1"
     transform="translate(-3.0532766,-541.41738)">
    <path
       style="fill:#669cb1;fill-opacity:1"
       inkscape:connector-curvature="0"
       d="m 219.3402,866.79314 v -0.3661 -233.59084 c -22.25349,1.87438 -43.643,6.76537 -63.75363,14.3215 V 830.05218 L 5.4109066,919.42246 c 4.44679,21.6531 11.8760104,42.1884 21.7360804,61.26421 L 218.51527,866.79314 h 0.82493 z"
       id="path3061" />
    <path
       style="fill:#669cb1;fill-opacity:1"
       inkscape:connector-curvature="0"
       d="M 323.7544,830.05218 V 647.18699 c -20.10575,-7.55613 -41.50014,-12.45688 -63.75363,-14.34103 v 233.58596 0.3661 h 0.83469 l 191.28042,113.8496 c 9.86495,-19.07581 17.27953,-39.61111 21.73608,-61.26421 L 323.7544,830.05218 z"
       id="path3063" />
    <path
       style="fill:#669cb1;fill-opacity:1"
       inkscape:connector-curvature="0"
       d="m 239.14331,904.00757 -0.40514,0.71266 L 47.652997,1013.591 c 13.18418,17.7286 28.78944,33.5291 46.2935,47.011 L 239.6412,977.57734 385.57995,1060.3677 c 17.4943,-13.4868 33.07516,-29.3068 46.2447,-47.0549 l -192.36894,-109.13439 -0.3124,-0.17084 z"
       id="path3065" />
    <path
       style="fill:#669cb1;fill-opacity:1"
       inkscape:connector-curvature="0"
       d="m 437.38924,859.41761 38.79594,-23.0833 c -3.21184,-22.21932 -9.5379,-43.42334 -18.43149,-63.20693 l -83.02469,49.39796 62.66024,36.89227 z"
       id="path3067" />
    <path
       style="fill:#669cb1;fill-opacity:1"
       inkscape:connector-curvature="0"
       d="m 260.00565,1018.2867 v 90.9323 c 22.25349,-1.8646 43.643,-6.7751 63.75364,-14.341 v -39.0352 l -63.75364,-37.5561 z"
       id="path3069" />
    <path
       style="fill:#669cb1;fill-opacity:1"
       inkscape:connector-curvature="0"
       d="m 353.39806,788.12249 85.74354,-48.8415 C 427.09474,721.07403 412.6024,704.63896 396.16244,690.3858 l -42.76926,24.37193 v 73.36476 z"
       id="path3071" />
    <path
       style="fill:#669cb1;fill-opacity:1"
       inkscape:connector-curvature="0"
       d="M 126.49937,715.31419 82.875887,690.5664 c -16.43019,14.26781 -30.89325,30.72729 -42.9157,48.94889 l 86.539183,49.09044 v -73.29154 z"
       id="path3073" />
    <path
       style="fill:#669cb1;fill-opacity:1"
       inkscape:connector-curvature="0"
       d="M 108.28753,824.72677 21.509177,773.08345 C 12.605827,792.87192 6.2895266,814.07106 3.0532766,836.28062 L 45.637057,861.6288 108.28753,824.72677 z"
       id="path3075" />
    <path
       style="fill:#669cb1;fill-opacity:1"
       inkscape:connector-curvature="0"
       d="m 155.58657,1060.1969 v 34.725 c 20.10575,7.5464 41.50014,12.4325 63.75363,14.3215 v -86.588 l -63.75363,37.5415 z"
       id="path3077" />
    <path
       style="fill:#669cb1;fill-opacity:1"
       inkscape:connector-curvature="0"
       d="m 1087.6331,648.37995 v -0.16738 -106.79519 c -10.174,0.85695 -19.9531,3.09306 -29.1474,6.54764 v 83.61736 l -68.65873,40.85912 c 2.03303,9.89957 5.42959,19.28808 9.9375,28.00933 l 87.49153,-52.07088 h 0.3771 z"
       id="path3061-1" />
    <path
       style="fill:#669cb1;fill-opacity:1"
       inkscape:connector-curvature="0"
       d="m 1135.3702,631.58238 v -83.60397 c -9.1922,-3.45458 -18.9735,-5.69515 -29.1475,-6.55657 v 106.79296 0.16738 h 0.3816 l 87.4513,52.0508 c 4.5102,-8.72125 7.9,-18.10977 9.9375,-28.00933 l -68.6229,-40.84127 z"
       id="path3063-4" />
    <path
       style="fill:#669cb1;fill-opacity:1"
       inkscape:connector-curvature="0"
       d="m 1096.6869,665.39398 -0.1852,0.32582 -87.3621,49.77451 c 6.0277,8.1054 13.1622,15.3292 21.1649,21.4929 l 66.61,-37.95793 66.7216,37.85083 c 7.9982,-6.166 15.1216,-13.3987 21.1426,-21.513 l -87.949,-49.89502 -0.1428,-0.0781 z"
       id="path3065-3" />
    <path
       style="fill:#669cb1;fill-opacity:1"
       inkscape:connector-curvature="0"
       d="m 1187.3228,645.00794 17.737,-10.55344 c -1.4684,-10.15843 -4.3606,-19.85267 -8.4266,-28.89752 l -37.958,22.58421 28.6476,16.86675 z"
       id="path3067-0" />
    <path
       style="fill:#669cb1;fill-opacity:1"
       inkscape:connector-curvature="0"
       d="m 1106.2249,717.64111 v 41.5733 c 10.1741,-0.8524 19.9531,-3.0975 29.1475,-6.5565 v -17.8465 l -29.1475,-17.1703 z"
       id="path3069-1" />
    <path
       style="fill:#669cb1;fill-opacity:1"
       inkscape:connector-curvature="0"
       d="m 1148.9229,612.41258 39.201,-22.3298 c -5.5077,-8.32402 -12.1334,-15.83796 -19.6496,-22.35435 l -19.5536,11.14258 v 33.54157 z"
       id="path3071-1" />
    <path
       style="fill:#669cb1;fill-opacity:1"
       inkscape:connector-curvature="0"
       d="M 1045.1873,579.12542 1025.2431,567.811 c -7.5117,6.52309 -14.124,14.04818 -19.6206,22.3789 l 39.5648,22.44362 v -33.5081 z"
       id="path3073-3" />
    <path
       style="fill:#669cb1;fill-opacity:1"
       inkscape:connector-curvature="0"
       d="M 1036.861,629.14766 997.18693,605.5369 c -4.07052,9.04707 -6.95826,18.73909 -8.43784,28.89306 l 19.46881,11.58891 28.6431,-16.87121 z"
       id="path3075-7" />
    <path
       style="fill:#669cb1;fill-opacity:1"
       inkscape:connector-curvature="0"
       d="m 1058.4857,736.80201 v 15.876 c 9.1921,3.4501 18.9734,5.684 29.1474,6.5476 v -39.5871 l -29.1474,17.1635 z"
       id="path3077-3" />
  </g>
</svg>
