<?xml version="1.0" encoding="utf-8"?>
<!-- Generator: Adobe Illustrator 18.0.0, SVG Export Plug-In . SVG Version: 6.00 Build 0)  -->
<!DOCTYPE svg PUBLIC "-//W3C//DTD SVG 1.1//EN" "http://www.w3.org/Graphics/SVG/1.1/DTD/svg11.dtd">
<svg version="1.1" id="Layer_1" xmlns="http://www.w3.org/2000/svg" xmlns:xlink="http://www.w3.org/1999/xlink" x="0px" y="0px"
	 viewBox="0 0 70.9 56.3" enable-background="new 0 0 70.9 56.3" xml:space="preserve">
<g>
	<line fill="none" stroke="#D1D2D1" stroke-width="0.5" stroke-miterlimit="10" x1="27.4" y1="0.6" x2="27.4" y2="56.2"/>
	<line fill="none" stroke="#D1D2D1" stroke-width="0.5" stroke-miterlimit="10" x1="23.2" y1="0.6" x2="23.2" y2="56.2"/>
	<g>
		<g>
			<g>
				<polyline fill="none" stroke="#B2B3B3" stroke-width="0.5" stroke-miterlimit="10" points="21.1,29.2 23.1,28 23.2,28 
					23.2,27.9 23.2,25.5 				"/>
				
					<line fill="none" stroke="#B2B3B3" stroke-width="0.5" stroke-miterlimit="10" stroke-dasharray="6.4,6.4" x1="23.2" y1="19.1" x2="23.2" y2="9.5"/>
				<path fill="none" stroke="#B2B3B3" stroke-width="0.5" stroke-miterlimit="10" d="M23.2,6.3V3.8c-0.8,0.1-1.7,0.2-2.5,0.3"/>
				<path fill="none" stroke="#B2B3B3" stroke-width="0.5" stroke-miterlimit="10" d="M19,4.5c-0.8,0.2-1.6,0.5-2.4,0.8v2.5"/>
				
					<line fill="none" stroke="#B2B3B3" stroke-width="0.5" stroke-miterlimit="10" stroke-dasharray="4.6394,4.6394" x1="16.6" y1="12.4" x2="16.6" y2="19.4"/>
				<polyline fill="none" stroke="#B2B3B3" stroke-width="0.5" stroke-miterlimit="10" points="16.6,21.7 16.6,24.2 14.5,25.5 				
					"/>
				
					<line fill="none" stroke="#B2B3B3" stroke-width="0.5" stroke-miterlimit="10" stroke-dasharray="4.3588,4.3588" x1="10.7" y1="27.7" x2="5.1" y2="31"/>
				<path fill="none" stroke="#B2B3B3" stroke-width="0.5" stroke-miterlimit="10" d="M3.2,32.1l-2.1,1.3c0.2,0.8,0.4,1.6,0.6,2.4"
					/>
				<path fill="none" stroke="#B2B3B3" stroke-width="0.5" stroke-miterlimit="10" d="M2.3,37.5c0.3,0.8,0.7,1.5,1,2.3l2.1-1.3"/>
				
					<line fill="none" stroke="#B2B3B3" stroke-width="0.5" stroke-miterlimit="10" stroke-dasharray="6.0402,6.0402" x1="10.7" y1="35.4" x2="18.5" y2="30.8"/>
			</g>
		</g>
		<g>
			<g>
				<polyline fill="none" stroke="#B2B3B3" stroke-width="0.5" stroke-miterlimit="10" points="36.2,25.5 34,24.2 34,21.7 				"/>
				
					<line fill="none" stroke="#B2B3B3" stroke-width="0.5" stroke-miterlimit="10" stroke-dasharray="4.6384,4.6384" x1="34" y1="17" x2="34" y2="10.1"/>
				<path fill="none" stroke="#B2B3B3" stroke-width="0.5" stroke-miterlimit="10" d="M34,7.8V5.3c-0.8-0.3-1.6-0.5-2.4-0.8"/>
				<path fill="none" stroke="#B2B3B3" stroke-width="0.5" stroke-miterlimit="10" d="M29.9,4.1c-0.8-0.2-1.6-0.3-2.5-0.3v2.5"/>
				
					<line fill="none" stroke="#B2B3B3" stroke-width="0.5" stroke-miterlimit="10" stroke-dasharray="6.3998,6.3998" x1="27.4" y1="12.7" x2="27.4" y2="22.3"/>
				<polyline fill="none" stroke="#B2B3B3" stroke-width="0.5" stroke-miterlimit="10" points="27.4,25.5 27.4,27.9 27.4,28 
					27.5,28 29.6,29.2 				"/>
				
					<line fill="none" stroke="#B2B3B3" stroke-width="0.5" stroke-miterlimit="10" stroke-dasharray="6.0371,6.0371" x1="34.8" y1="32.3" x2="42.6" y2="36.9"/>
				<path fill="none" stroke="#B2B3B3" stroke-width="0.5" stroke-miterlimit="10" d="M45.2,38.5l2.1,1.3c0.4-0.7,0.7-1.5,1-2.3"/>
				<path fill="none" stroke="#B2B3B3" stroke-width="0.5" stroke-miterlimit="10" d="M48.9,35.8c0.2-0.8,0.5-1.6,0.6-2.4l-2.1-1.3"
					/>
				
					<line fill="none" stroke="#B2B3B3" stroke-width="0.5" stroke-miterlimit="10" stroke-dasharray="4.3558,4.3558" x1="43.7" y1="29.9" x2="38" y2="26.6"/>
			</g>
		</g>
		<g>
			<g>
				<polyline fill="none" stroke="#B2B3B3" stroke-width="0.5" stroke-miterlimit="10" points="27.5,33.1 25.3,31.8 25.3,31.8 
					25.2,31.9 23.1,33.1 				"/>
				
					<line fill="none" stroke="#B2B3B3" stroke-width="0.5" stroke-miterlimit="10" stroke-dasharray="5.9444,5.9444" x1="18" y1="36" x2="10.2" y2="40.4"/>
				<path fill="none" stroke="#B2B3B3" stroke-width="0.5" stroke-miterlimit="10" d="M7.6,41.9l-2.2,1.2c0.5,0.7,1,1.3,1.6,1.9"/>
				<path fill="none" stroke="#B2B3B3" stroke-width="0.5" stroke-miterlimit="10" d="M8.4,46.4C9,47,9.6,47.5,10.3,48l2.2-1.2"/>
				
					<line fill="none" stroke="#B2B3B3" stroke-width="0.5" stroke-miterlimit="10" stroke-dasharray="4.1152,4.1152" x1="16" y1="44.7" x2="21.4" y2="41.7"/>
				<polyline fill="none" stroke="#B2B3B3" stroke-width="0.5" stroke-miterlimit="10" points="23.2,40.7 25.3,39.4 27.5,40.7 				
					"/>
				
					<line fill="none" stroke="#B2B3B3" stroke-width="0.5" stroke-miterlimit="10" stroke-dasharray="4.1185,4.1185" x1="31.1" y1="42.7" x2="36.5" y2="45.7"/>
				<path fill="none" stroke="#B2B3B3" stroke-width="0.5" stroke-miterlimit="10" d="M38.3,46.8l2.2,1.2c0.7-0.5,1.3-1.1,1.9-1.6"
					/>
				<path fill="none" stroke="#B2B3B3" stroke-width="0.5" stroke-miterlimit="10" d="M43.6,45.1c0.6-0.6,1.1-1.3,1.6-1.9L43,41.9"
					/>
				
					<line fill="none" stroke="#B2B3B3" stroke-width="0.5" stroke-miterlimit="10" stroke-dasharray="5.9714,5.9714" x1="37.8" y1="38.9" x2="30" y2="34.5"/>
			</g>
		</g>
		<g>
			<g>
				<path fill="none" stroke="#B2B3B3" stroke-width="0.5" stroke-miterlimit="10" d="M43.6,25.9l2.2,1.3l4-2.4
					c-0.1-0.8-0.3-1.7-0.5-2.5"/>
				<path fill="none" stroke="#B2B3B3" stroke-width="0.5" stroke-miterlimit="10" d="M48.8,20.6c-0.3-0.8-0.6-1.6-0.9-2.3l-2.1,1.3
					"/>
				<polyline fill="none" stroke="#B2B3B3" stroke-width="0.5" stroke-miterlimit="10" points="41.5,22.1 39.3,23.4 41.5,24.7 				
					"/>
			</g>
		</g>
		<g>
			<g>
				<polyline fill="none" stroke="#B2B3B3" stroke-width="0.5" stroke-miterlimit="10" points="29.6,44.9 27.4,43.6 27.4,46.1 				
					"/>
				<path fill="none" stroke="#B2B3B3" stroke-width="0.5" stroke-miterlimit="10" d="M27.4,50.5V53c0.8-0.1,1.7-0.2,2.5-0.3"/>
				<path fill="none" stroke="#B2B3B3" stroke-width="0.5" stroke-miterlimit="10" d="M31.6,52.3c0.8-0.2,1.6-0.5,2.4-0.8v-4
					l-2.2-1.3"/>
			</g>
		</g>
		<g>
			<g>
				<path fill="none" stroke="#B2B3B3" stroke-width="0.5" stroke-miterlimit="10" d="M43.8,16l2.2-1.2c-0.5-0.7-1-1.4-1.5-2"/>
				<path fill="none" stroke="#B2B3B3" stroke-width="0.5" stroke-miterlimit="10" d="M43.3,11.5c-0.6-0.6-1.2-1.2-1.8-1.7L39.3,11"
					/>
				<polyline fill="none" stroke="#B2B3B3" stroke-width="0.5" stroke-miterlimit="10" points="39.3,11 37.1,12.2 37.1,14.7 				"/>
				<polyline fill="none" stroke="#B2B3B3" stroke-width="0.5" stroke-miterlimit="10" points="37.1,17.3 37.1,19.8 37.1,19.8 
					39.3,18.6 				"/>
			</g>
		</g>
		<g>
			<g>
				<polyline fill="none" stroke="#B2B3B3" stroke-width="0.5" stroke-miterlimit="10" points="13.6,14.8 13.6,12.3 11.5,11.1 				
					"/>
				<path fill="none" stroke="#B2B3B3" stroke-width="0.5" stroke-miterlimit="10" d="M11.3,11L9.1,9.7c-0.6,0.5-1.2,1.1-1.8,1.7"/>
				<path fill="none" stroke="#B2B3B3" stroke-width="0.5" stroke-miterlimit="10" d="M6.2,12.8c-0.5,0.6-1,1.3-1.5,2L6.8,16"/>
				<polyline fill="none" stroke="#B2B3B3" stroke-width="0.5" stroke-miterlimit="10" points="11.5,18.7 13.6,19.9 13.6,17.4 				
					"/>
			</g>
		</g>
		<g>
			<g>
				<polyline fill="none" stroke="#B2B3B3" stroke-width="0.5" stroke-miterlimit="10" points="9.6,24.9 11.7,23.6 9.6,22.3 				"/>
				<path fill="none" stroke="#B2B3B3" stroke-width="0.5" stroke-miterlimit="10" d="M4.9,19.6l-2.1-1.3c-0.3,0.8-0.6,1.5-0.9,2.3"
					/>
				<path fill="none" stroke="#B2B3B3" stroke-width="0.5" stroke-miterlimit="10" d="M1.3,22.4C1.1,23.2,1,24,0.9,24.8L3,26.1"/>
				<polyline fill="none" stroke="#B2B3B3" stroke-width="0.5" stroke-miterlimit="10" points="3.1,26.2 5.3,27.4 7.4,26.2 				"/>
			</g>
		</g>
		<g>
			<g>
				<path fill="none" stroke="#B2B3B3" stroke-width="0.5" stroke-miterlimit="10" d="M18.8,46.7L16.6,48v3.6
					c0.8,0.3,1.6,0.5,2.4,0.8"/>
				<path fill="none" stroke="#B2B3B3" stroke-width="0.5" stroke-miterlimit="10" d="M20.8,52.7c0.8,0.2,1.6,0.3,2.5,0.3v-2.5"/>
				<polyline fill="none" stroke="#B2B3B3" stroke-width="0.5" stroke-miterlimit="10" points="23.2,46.6 23.2,44.1 21.1,45.4 				
					"/>
			</g>
		</g>
	</g>
	<g>
		<path fill="#A61E22" d="M43.6,28L43.6,28V3.8C41.3,4,39.1,4.5,37,5.3v18.9l-15.5,9.2c0.5,2.2,1.2,4.4,2.2,6.3L43.6,28L43.6,28z"/>
		<path fill="#A61E22" d="M54.4,24.2V5.3c-2.1-0.8-4.3-1.3-6.6-1.5v24.2v0h0.1l19.8,11.8c1-2,1.8-4.1,2.2-6.3L54.4,24.2z"/>
		<path fill="#A61E22" d="M45.6,31.8L45.6,31.8L25.8,43.2c1.4,1.8,3,3.5,4.8,4.9l15.1-8.6L60.8,48c1.8-1.4,3.4-3,4.8-4.9L45.6,31.8
			L45.6,31.8z"/>
		<path fill="#A61E22" d="M66.1,27.2l4-2.4c-0.3-2.3-1-4.5-1.9-6.5l-8.6,5.1L66.1,27.2z"/>
		<path fill="#A61E22" d="M47.8,43.6V53c2.3-0.2,4.5-0.7,6.6-1.5v-4L47.8,43.6z"/>
		<path fill="#A61E22" d="M57.5,19.8l8.9-5.1c-1.2-1.9-2.7-3.6-4.4-5.1l-4.4,2.5L57.5,19.8L57.5,19.8z"/>
		<path fill="#A61E22" d="M34,12.3l-4.5-2.6c-1.7,1.5-3.2,3.2-4.4,5.1l9,5.1V12.3z"/>
		<path fill="#A61E22" d="M32.1,23.6l-9-5.3c-0.9,2-1.6,4.2-1.9,6.5l4.4,2.6L32.1,23.6z"/>
		<path fill="#A61E22" d="M37,48v3.6c2.1,0.8,4.3,1.3,6.6,1.5v-9L37,48z"/>
	</g>
	<path fill="none" stroke="#D1D2D1" stroke-miterlimit="10" d="M51.9,47"/>
	<path fill="none" stroke="#D1D2D1" stroke-miterlimit="10" d="M-3.8,14.5"/>
</g>
</svg>
