<?xml version="1.0" encoding="utf-8"?>
<!-- Generator: Adobe Illustrator 14.0.0, SVG Export Plug-In  -->
<!DOCTYPE svg PUBLIC "-//W3C//DTD SVG 1.1//EN" "http://www.w3.org/Graphics/SVG/1.1/DTD/svg11.dtd">
<svg version="1.1"
	 class="logo"
	 xmlns="http://www.w3.org/2000/svg" xmlns:xlink="http://www.w3.org/1999/xlink" xmlns:a="http://ns.adobe.com/AdobeSVGViewerExtensions/3.0/"
	 x="0px" y="0px" width="100px" height="100px" viewBox="-1.906 -0.972 100 100" enable-background="new -1.906 -0.972 100 100"
	 xml:space="preserve">
<defs>
</defs>
<path d="M44.31,47.93v-0.075V0c-4.559,0.384-8.941,1.386-13.061,2.934v37.469L0.483,58.712
	c0.911,4.436,2.433,8.643,4.453,12.551L44.141,47.93H44.31z"/>
<path d="M65.701,40.403V2.94c-4.119-1.548-8.502-2.552-13.061-2.938v47.854v0.075h0.171l39.187,23.324
	c2.021-3.908,3.54-8.115,4.453-12.551L65.701,40.403z"/>
<path d="M48.367,55.554l-0.083,0.146L9.137,78.004c2.701,3.632,5.898,6.869,9.484,9.631l29.848-17.009l29.898,16.961
	c3.584-2.763,6.776-6.004,9.474-9.64L48.431,55.589L48.367,55.554z"/>
<path d="M88.981,46.419l7.948-4.729c-0.658-4.552-1.954-8.896-3.776-12.949l-17.009,10.12L88.981,46.419z"/>
<path d="M52.641,78.966v18.629c4.559-0.382,8.941-1.388,13.061-2.938V86.66L52.641,78.966z"/>
<path d="M71.774,31.813l17.566-10.006c-2.468-3.73-5.437-7.097-8.805-10.017l-8.762,4.993V31.813z"/>
<path d="M25.29,16.897l-8.937-5.07c-3.366,2.923-6.329,6.295-8.792,10.028L25.29,31.912V16.897z"/>
<path d="M21.559,39.312L3.781,28.732C1.957,32.786,0.663,37.129,0,41.679l8.724,5.193L21.559,39.312z"/>
<path d="M31.249,87.552v7.114c4.119,1.546,8.502,2.547,13.061,2.934V79.861L31.249,87.552z"/>
</svg>
