<?xml version="1.0" encoding="utf-8"?>
<!-- Generator: Adobe Illustrator 18.0.0, SVG Export Plug-In . SVG Version: 6.00 Build 0)  -->
<!DOCTYPE svg PUBLIC "-//W3C//DTD SVG 1.1//EN" "http://www.w3.org/Graphics/SVG/1.1/DTD/svg11.dtd">
<svg version="1.1" id="Layer_1" xmlns="http://www.w3.org/2000/svg" xmlns:xlink="http://www.w3.org/1999/xlink" x="0px" y="0px"
	 viewBox="0 0 80 49.3" enable-background="new 0 0 80 49.3" xml:space="preserve">
<g>
	<rect x="8.4" y="0.5" fill="#2B2B2B" width="64.7" height="45.4"/>
	<rect x="10.8" y="2.8" fill="#FFFFFF" width="60.1" height="39.8"/>
	<g>
		<path fill="#3F403F" d="M6.3,44.4h73c0,0-0.3,2.4-3.3,2.4c-2.9,0-66.1,0-66.1,0L6.3,44.4z"/>
		<path fill="#3F403F" d="M75.3,44.4h-73c0,0,0.3,2.4,3.3,2.4s66.1,0,66.1,0L75.3,44.4z"/>
	</g>
	<rect x="10.7" y="2.8" fill="#3D3D3D" width="60.1" height="5.6"/>
	<rect x="53.5" y="27" fill="#D6D6D6" width="17.4" height="15.6"/>
	<g>
		<path fill="#FFFFFF" d="M40.7,4.6L40.7,4.6V3.6c-0.1,0-0.2,0-0.3,0.1v0.7l-0.6,0.4c0,0.1,0,0.2,0.1,0.2L40.7,4.6L40.7,4.6z"/>
		<path fill="#FFFFFF" d="M41.1,4.4V3.7c-0.1,0-0.2-0.1-0.3-0.1v0.9v0h0L41.6,5c0-0.1,0.1-0.2,0.1-0.2L41.1,4.4z"/>
		<path fill="#FFFFFF" d="M40.8,4.7L40.8,4.7L40,5.2c0.1,0.1,0.1,0.1,0.2,0.2L40.8,5l0.6,0.3c0.1-0.1,0.1-0.1,0.2-0.2L40.8,4.7
			L40.8,4.7z"/>
		<path fill="#FFFFFF" d="M41.6,4.5l0.2-0.1c0-0.1,0-0.2-0.1-0.3l-0.3,0.2L41.6,4.5z"/>
		<path fill="#FFFFFF" d="M40.9,5.2v0.4c0.1,0,0.2,0,0.3-0.1V5.3L40.9,5.2z"/>
		<path fill="#FFFFFF" d="M41.2,4.3l0.3-0.2c0-0.1-0.1-0.1-0.2-0.2L41.2,4L41.2,4.3L41.2,4.3z"/>
		<path fill="#FFFFFF" d="M40.3,4l-0.2-0.1C40.1,3.9,40,4,40,4.1l0.3,0.2V4z"/>
		<path fill="#FFFFFF" d="M40.3,4.4l-0.3-0.2c0,0.1-0.1,0.2-0.1,0.3L40,4.5L40.3,4.4z"/>
		<path fill="#FFFFFF" d="M40.4,5.3v0.1c0.1,0,0.2,0.1,0.3,0.1V5.2L40.4,5.3z"/>
	</g>
	<rect x="10.7" y="8.4" fill="#A61E22" width="60.1" height="18.6"/>
	<rect x="54.2" y="27.7" fill="#707071" width="10.5" height="6.3"/>
	<rect x="41.2" y="33.8" fill="#BFBFBF" width="11.6" height="6.9"/>
	<rect x="28.9" y="33.8" fill="#BFBFBF" width="11.6" height="6.9"/>
	<rect x="16.6" y="33.8" fill="#BFBFBF" width="11.6" height="6.9"/>
	<rect x="54.2" y="35" fill="#2B2B2B" width="9" height="0.4"/>
	<rect x="54.2" y="35.6" fill="#707071" width="2.3" height="0.2"/>
	<rect x="54.2" y="36.2" fill="#707071" width="9.8" height="0.2"/>
	<rect x="54.2" y="37.8" fill="#2B2B2B" width="9" height="0.4"/>
	<rect x="54.2" y="39.1" fill="#707071" width="2.3" height="0.2"/>
	<rect x="56.8" y="35.6" fill="#A61E22" width="2.5" height="0.2"/>
	<rect x="56.8" y="39.1" fill="#A61E22" width="2.5" height="0.2"/>
	<rect x="54.2" y="38.7" fill="#2B2B2B" width="9.8" height="0.2"/>
	<rect x="54.2" y="36.5" fill="#707071" width="9.8" height="0.2"/>
	<rect x="54.2" y="36.9" fill="#707071" width="9.1" height="0.2"/>
	<rect x="54.2" y="40.1" fill="#707071" width="2.3" height="0.2"/>
	<rect x="56.8" y="40.1" fill="#A61E22" width="2.5" height="0.2"/>
	<rect x="54.2" y="39.7" fill="#2B2B2B" width="9.8" height="0.2"/>
	<rect x="54.2" y="40.1" fill="#707071" width="2.3" height="0.2"/>
	<rect x="56.8" y="40.1" fill="#A61E22" width="2.5" height="0.2"/>
	<rect x="54.2" y="39.7" fill="#2B2B2B" width="9.8" height="0.2"/>
	<rect x="54.2" y="41.1" fill="#707071" width="2.3" height="0.2"/>
	<rect x="56.8" y="41.1" fill="#A61E22" width="2.5" height="0.2"/>
	<rect x="54.2" y="40.7" fill="#2B2B2B" width="9.8" height="0.2"/>
	<rect x="16.7" y="28.5" fill="#2B2B2B" width="14.8" height="0.4"/>
	<rect x="16.7" y="29.5" fill="#707071" width="28.2" height="0.2"/>
	<rect x="16.7" y="29.9" fill="#707071" width="28.2" height="0.2"/>
	<rect x="16.7" y="30.2" fill="#707071" width="26.1" height="0.2"/>
	<rect x="16.7" y="31" fill="#707071" width="28.2" height="0.2"/>
	<rect x="16.7" y="31.4" fill="#707071" width="28.2" height="0.2"/>
	<rect x="16.7" y="31.7" fill="#707071" width="26.1" height="0.2"/>
	<rect x="36.1" y="25.1" fill="#FFFFFF" width="9.4" height="0.4"/>
	<rect x="34.7" y="24.3" fill="#FFFFFF" width="12.1" height="0.4"/>
	<rect x="0.7" y="22.3" fill="#2B2B2B" width="14.5" height="26.4"/>
	<rect x="1.1" y="23.1" fill="#FFFFFF" width="13.7" height="23.8"/>
	<rect x="1.1" y="23.1" fill="#A61E22" width="13.7" height="11.4"/>
	<rect x="1.1" y="23.1" fill="#3D3D3D" width="13.7" height="2.3"/>
	<g>
		<path fill="#FFFFFF" d="M7.9,24.2L7.9,24.2v-0.6c-0.1,0-0.1,0-0.2,0v0.5l-0.4,0.2c0,0.1,0,0.1,0.1,0.2L7.9,24.2L7.9,24.2z"/>
		<path fill="#FFFFFF" d="M8.2,24.1v-0.5c-0.1,0-0.1,0-0.2,0v0.6v0h0l0.5,0.3c0-0.1,0-0.1,0.1-0.2L8.2,24.1z"/>
		<path fill="#FFFFFF" d="M7.9,24.3L7.9,24.3l-0.5,0.3c0,0,0.1,0.1,0.1,0.1l0.4-0.2l0.4,0.2c0,0,0.1-0.1,0.1-0.1L7.9,24.3L7.9,24.3z
			"/>
		<path fill="#FFFFFF" d="M8.5,24.2l0.1-0.1c0-0.1,0-0.1,0-0.2l-0.2,0.1L8.5,24.2z"/>
		<path fill="#FFFFFF" d="M8,24.6v0.2c0.1,0,0.1,0,0.2,0v-0.1L8,24.6z"/>
		<path fill="#FFFFFF" d="M8.2,24l0.2-0.1c0,0-0.1-0.1-0.1-0.1l-0.1,0.1L8.2,24L8.2,24z"/>
		<path fill="#FFFFFF" d="M7.6,23.8l-0.1-0.1c0,0-0.1,0.1-0.1,0.1L7.6,24V23.8z"/>
		<path fill="#FFFFFF" d="M7.6,24.1l-0.2-0.1c0,0.1,0,0.1,0,0.2l0.1,0.1L7.6,24.1z"/>
		<path fill="#FFFFFF" d="M7.7,24.7L7.7,24.7c0.1,0.1,0.1,0.1,0.2,0.1v-0.2L7.7,24.7z"/>
	</g>
	<rect x="2" y="23.9" fill="#FFFFFF" width="0.7" height="0.1"/>
	<rect x="2" y="24.1" fill="#FFFFFF" width="0.7" height="0.1"/>
	<rect x="2" y="24.3" fill="#FFFFFF" width="0.7" height="0.1"/>
	<g>
		<path fill="#A61E22" d="M13.5,24.3C13.5,24.3,13.5,24.4,13.5,24.3c-0.1,0.1-0.2,0-0.2,0c0,0-0.1-0.1-0.1-0.1c0,0,0,0,0.1-0.1
			c0,0-0.1-0.2-0.1-0.2c0,0-0.1,0.1-0.1,0.1c0,0.1,0.1,0.3,0.2,0.3c0.1,0.1,0.2,0.2,0.3,0.2c0,0,0.1-0.1,0.1-0.1
			C13.7,24.4,13.6,24.3,13.5,24.3L13.5,24.3z M13.5,24.3"/>
	</g>
	<rect x="1.7" y="35.4" fill="#2B2B2B" width="12.4" height="0.4"/>
	<rect x="1.7" y="36.1" fill="#2B2B2B" width="8.6" height="0.4"/>
	<rect x="1.7" y="37.9" fill="#707071" width="12.3" height="0.2"/>
	<rect x="1.7" y="38.2" fill="#707071" width="12.3" height="0.2"/>
	<rect x="1.7" y="37.2" fill="#707071" width="12.3" height="0.2"/>
	<rect x="1.7" y="37.6" fill="#707071" width="12.3" height="0.2"/>
	<rect x="1.7" y="38.6" fill="#707071" width="11.4" height="0.2"/>
	<rect x="1.7" y="39.4" fill="#707071" width="12.3" height="0.2"/>
	<rect x="1.7" y="39.7" fill="#707071" width="12.3" height="0.2"/>
	<rect x="1.7" y="40.1" fill="#707071" width="12.3" height="0.2"/>
	<rect x="1.7" y="40.4" fill="#707071" width="12.3" height="0.2"/>
	<rect x="1.7" y="40.8" fill="#707071" width="11.4" height="0.2"/>
	<rect x="1.7" y="42.2" fill="#BFBFBF" width="12.3" height="4.6"/>
	<rect x="5.3" y="33.2" fill="#FFFFFF" width="5.1" height="0.4"/>
	<rect x="4.6" y="32.3" fill="#FFFFFF" width="6.5" height="0.4"/>
</g>
</svg>
